<mxfile host="Electron" agent="Mozilla/5.0 (Windows NT 10.0; Win64; x64) AppleWebKit/537.36 (KHTML, like Gecko) draw.io/26.1.1 Chrome/132.0.6834.210 Electron/34.3.3 Safari/537.36" version="26.1.1">
  <diagram name="Page-1" id="Tml9xZrlgXQiKfvcQSMe">
    <mxGraphModel dx="1750" dy="1035" grid="1" gridSize="10" guides="1" tooltips="1" connect="1" arrows="1" fold="1" page="1" pageScale="1" pageWidth="850" pageHeight="1100" math="0" shadow="0">
      <root>
        <mxCell id="0" />
        <mxCell id="1" parent="0" />
        <mxCell id="MTR0tLnfn8A8-io0NUta-1" value="userID" style="rounded=0;whiteSpace=wrap;html=1;fontStyle=5;fillColor=#fff2cc;strokeColor=#d6b656;fontSize=15;align=center;" vertex="1" parent="1">
          <mxGeometry x="40" y="20" width="120" height="60" as="geometry" />
        </mxCell>
        <mxCell id="MTR0tLnfn8A8-io0NUta-2" value="username" style="rounded=0;whiteSpace=wrap;html=1;fillColor=#fff2cc;strokeColor=#d6b656;fontSize=15;fontStyle=1;align=center;" vertex="1" parent="1">
          <mxGeometry x="160" y="20" width="120" height="60" as="geometry" />
        </mxCell>
        <mxCell id="MTR0tLnfn8A8-io0NUta-3" value="password" style="rounded=0;whiteSpace=wrap;html=1;fillColor=#fff2cc;strokeColor=#d6b656;fontSize=15;fontStyle=1;align=center;" vertex="1" parent="1">
          <mxGeometry x="280" y="20" width="120" height="60" as="geometry" />
        </mxCell>
        <mxCell id="MTR0tLnfn8A8-io0NUta-4" value="firstName" style="rounded=0;whiteSpace=wrap;html=1;fillColor=#fff2cc;strokeColor=#d6b656;fontSize=15;fontStyle=1;align=center;" vertex="1" parent="1">
          <mxGeometry x="400" y="20" width="120" height="60" as="geometry" />
        </mxCell>
        <mxCell id="MTR0tLnfn8A8-io0NUta-5" value="middleName" style="rounded=0;whiteSpace=wrap;html=1;fillColor=#fff2cc;strokeColor=#d6b656;fontSize=15;fontStyle=1;align=center;" vertex="1" parent="1">
          <mxGeometry x="520" y="20" width="120" height="60" as="geometry" />
        </mxCell>
        <mxCell id="MTR0tLnfn8A8-io0NUta-6" value="lastName" style="rounded=0;whiteSpace=wrap;html=1;fillColor=#fff2cc;strokeColor=#d6b656;fontSize=15;fontStyle=1;align=center;" vertex="1" parent="1">
          <mxGeometry x="640" y="20" width="120" height="60" as="geometry" />
        </mxCell>
        <mxCell id="MTR0tLnfn8A8-io0NUta-7" value="email" style="rounded=0;whiteSpace=wrap;html=1;fillColor=#fff2cc;strokeColor=#d6b656;fontSize=15;fontStyle=1;align=center;" vertex="1" parent="1">
          <mxGeometry x="760" y="20" width="120" height="60" as="geometry" />
        </mxCell>
        <mxCell id="MTR0tLnfn8A8-io0NUta-8" value="phone" style="rounded=0;whiteSpace=wrap;html=1;fillColor=#fff2cc;strokeColor=#d6b656;fontSize=15;fontStyle=1;align=center;" vertex="1" parent="1">
          <mxGeometry x="880" y="20" width="120" height="60" as="geometry" />
        </mxCell>
        <mxCell id="MTR0tLnfn8A8-io0NUta-9" value="role" style="rounded=0;whiteSpace=wrap;html=1;fillColor=#fff2cc;strokeColor=#d6b656;fontSize=15;fontStyle=1;align=center;" vertex="1" parent="1">
          <mxGeometry x="1000" y="20" width="120" height="60" as="geometry" />
        </mxCell>
        <mxCell id="MTR0tLnfn8A8-io0NUta-10" value="&lt;span&gt;&lt;span&gt;&lt;font&gt;User&lt;/font&gt;&lt;/span&gt;&lt;/span&gt;" style="text;html=1;align=center;verticalAlign=middle;whiteSpace=wrap;rounded=0;fontSize=15;fontStyle=3;fontColor=#000066;" vertex="1" parent="1">
          <mxGeometry x="10" width="60" height="30" as="geometry" />
        </mxCell>
        <mxCell id="MTR0tLnfn8A8-io0NUta-11" value="userID" style="rounded=0;whiteSpace=wrap;html=1;fontStyle=5;fillColor=#fff2cc;strokeColor=#d6b656;fontSize=15;align=center;" vertex="1" parent="1">
          <mxGeometry x="40" y="120" width="120" height="60" as="geometry" />
        </mxCell>
        <mxCell id="MTR0tLnfn8A8-io0NUta-12" value="licenseNumber" style="rounded=0;whiteSpace=wrap;html=1;fillColor=#fff2cc;strokeColor=#d6b656;fontSize=15;fontStyle=1;align=center;" vertex="1" parent="1">
          <mxGeometry x="160" y="120" width="120" height="60" as="geometry" />
        </mxCell>
        <mxCell id="MTR0tLnfn8A8-io0NUta-13" value="age" style="rounded=0;whiteSpace=wrap;html=1;fillColor=#fff2cc;strokeColor=#d6b656;fontSize=15;fontStyle=1;align=center;" vertex="1" parent="1">
          <mxGeometry x="280" y="120" width="120" height="60" as="geometry" />
        </mxCell>
        <mxCell id="MTR0tLnfn8A8-io0NUta-14" value="rating" style="rounded=0;whiteSpace=wrap;html=1;fillColor=#fff2cc;strokeColor=#d6b656;fontSize=15;fontStyle=1;align=center;" vertex="1" parent="1">
          <mxGeometry x="400" y="120" width="120" height="60" as="geometry" />
        </mxCell>
        <mxCell id="MTR0tLnfn8A8-io0NUta-15" value="availability" style="rounded=0;whiteSpace=wrap;html=1;fillColor=#fff2cc;strokeColor=#d6b656;fontSize=15;fontStyle=1;align=center;" vertex="1" parent="1">
          <mxGeometry x="520" y="120" width="120" height="60" as="geometry" />
        </mxCell>
        <mxCell id="MTR0tLnfn8A8-io0NUta-16" value="Driver" style="text;html=1;align=center;verticalAlign=middle;whiteSpace=wrap;rounded=0;fontStyle=3;fontSize=15;fontColor=#000066;" vertex="1" parent="1">
          <mxGeometry y="90" width="80" height="40" as="geometry" />
        </mxCell>
        <mxCell id="MTR0tLnfn8A8-io0NUta-20" value="" style="endArrow=classic;html=1;rounded=0;exitX=0.333;exitY=1.037;exitDx=0;exitDy=0;exitPerimeter=0;entryX=0;entryY=0.75;entryDx=0;entryDy=0;fontSize=15;fontStyle=1;align=center;" edge="1" parent="1" target="MTR0tLnfn8A8-io0NUta-1">
          <mxGeometry width="50" height="50" relative="1" as="geometry">
            <mxPoint x="69.96000000000004" y="182.22000000000003" as="sourcePoint" />
            <mxPoint x="30" y="70" as="targetPoint" />
            <Array as="points">
              <mxPoint x="70" y="200" />
              <mxPoint x="20" y="200" />
              <mxPoint x="20" y="65" />
            </Array>
          </mxGeometry>
        </mxCell>
        <mxCell id="MTR0tLnfn8A8-io0NUta-22" value="userID" style="rounded=0;whiteSpace=wrap;html=1;fontStyle=5;fillColor=#fff2cc;strokeColor=#d6b656;fontSize=15;align=center;" vertex="1" parent="1">
          <mxGeometry x="40" y="230" width="120" height="60" as="geometry" />
        </mxCell>
        <mxCell id="MTR0tLnfn8A8-io0NUta-23" value="rewardPoints" style="rounded=0;whiteSpace=wrap;html=1;fillColor=#fff2cc;strokeColor=#d6b656;fontSize=15;fontStyle=1;align=center;" vertex="1" parent="1">
          <mxGeometry x="160" y="230" width="120" height="60" as="geometry" />
        </mxCell>
        <mxCell id="MTR0tLnfn8A8-io0NUta-24" value="" style="endArrow=classic;html=1;rounded=0;exitX=0.25;exitY=1;exitDx=0;exitDy=0;entryX=0;entryY=0.25;entryDx=0;entryDy=0;fontSize=15;fontStyle=1;align=center;" edge="1" parent="1" source="MTR0tLnfn8A8-io0NUta-22" target="MTR0tLnfn8A8-io0NUta-1">
          <mxGeometry width="50" height="50" relative="1" as="geometry">
            <mxPoint x="90" y="190" as="sourcePoint" />
            <mxPoint x="10" y="320" as="targetPoint" />
            <Array as="points">
              <mxPoint x="70" y="320" />
              <mxPoint x="10" y="320" />
              <mxPoint x="10" y="35" />
            </Array>
          </mxGeometry>
        </mxCell>
        <mxCell id="MTR0tLnfn8A8-io0NUta-25" value="Customer" style="text;html=1;align=center;verticalAlign=middle;whiteSpace=wrap;rounded=0;fontStyle=3;fontColor=#000066;fontSize=15;" vertex="1" parent="1">
          <mxGeometry x="10" y="210" width="60" height="30" as="geometry" />
        </mxCell>
        <mxCell id="MTR0tLnfn8A8-io0NUta-26" value="plateNumber" style="rounded=0;whiteSpace=wrap;html=1;fontStyle=5;fillColor=#fff2cc;strokeColor=#d6b656;fontSize=15;align=center;" vertex="1" parent="1">
          <mxGeometry x="40" y="350" width="120" height="60" as="geometry" />
        </mxCell>
        <mxCell id="MTR0tLnfn8A8-io0NUta-27" value="type" style="rounded=0;whiteSpace=wrap;html=1;fillColor=#fff2cc;strokeColor=#d6b656;fontSize=15;fontStyle=1;align=center;" vertex="1" parent="1">
          <mxGeometry x="160" y="350" width="120" height="60" as="geometry" />
        </mxCell>
        <mxCell id="MTR0tLnfn8A8-io0NUta-28" value="model" style="rounded=0;whiteSpace=wrap;html=1;fillColor=#fff2cc;strokeColor=#d6b656;fontSize=15;fontStyle=1;align=center;" vertex="1" parent="1">
          <mxGeometry x="280" y="350" width="120" height="60" as="geometry" />
        </mxCell>
        <mxCell id="MTR0tLnfn8A8-io0NUta-29" value="status" style="rounded=0;whiteSpace=wrap;html=1;fillColor=#fff2cc;strokeColor=#d6b656;fontSize=15;fontStyle=1;align=center;" vertex="1" parent="1">
          <mxGeometry x="400" y="350" width="120" height="60" as="geometry" />
        </mxCell>
        <mxCell id="MTR0tLnfn8A8-io0NUta-30" value="fuelLevel" style="rounded=0;whiteSpace=wrap;html=1;fillColor=#fff2cc;strokeColor=#d6b656;fontSize=15;fontStyle=1;align=center;" vertex="1" parent="1">
          <mxGeometry x="520" y="350" width="120" height="60" as="geometry" />
        </mxCell>
        <mxCell id="MTR0tLnfn8A8-io0NUta-31" value="driverID" style="rounded=0;whiteSpace=wrap;html=1;fillColor=#fff2cc;strokeColor=#d6b656;fontSize=15;fontStyle=1;align=center;" vertex="1" parent="1">
          <mxGeometry x="640" y="350" width="120" height="60" as="geometry" />
        </mxCell>
        <mxCell id="MTR0tLnfn8A8-io0NUta-32" value="" style="endArrow=classic;html=1;rounded=0;exitX=0.5;exitY=1;exitDx=0;exitDy=0;entryX=0.5;entryY=1;entryDx=0;entryDy=0;fontSize=15;fontStyle=1;align=center;" edge="1" parent="1" source="MTR0tLnfn8A8-io0NUta-31" target="MTR0tLnfn8A8-io0NUta-11">
          <mxGeometry width="50" height="50" relative="1" as="geometry">
            <mxPoint x="440" y="110" as="sourcePoint" />
            <mxPoint x="490" y="60" as="targetPoint" />
            <Array as="points">
              <mxPoint x="700" y="440" />
              <mxPoint x="800" y="440" />
              <mxPoint x="800" y="210" />
              <mxPoint x="100" y="210" />
            </Array>
          </mxGeometry>
        </mxCell>
        <mxCell id="MTR0tLnfn8A8-io0NUta-34" value="Car" style="text;whiteSpace=wrap;fontStyle=3;fontColor=#000066;fontSize=15;align=center;" vertex="1" parent="1">
          <mxGeometry x="20" y="330" width="50" height="40" as="geometry" />
        </mxCell>
        <mxCell id="MTR0tLnfn8A8-io0NUta-35" value="rideID" style="rounded=0;whiteSpace=wrap;html=1;fontStyle=5;fillColor=#fff2cc;strokeColor=#d6b656;fontSize=15;align=center;" vertex="1" parent="1">
          <mxGeometry x="40" y="460" width="120" height="60" as="geometry" />
        </mxCell>
        <mxCell id="MTR0tLnfn8A8-io0NUta-36" value="startLocation" style="rounded=0;whiteSpace=wrap;html=1;fillColor=#fff2cc;strokeColor=#d6b656;fontSize=15;fontStyle=1;align=center;" vertex="1" parent="1">
          <mxGeometry x="160" y="460" width="120" height="60" as="geometry" />
        </mxCell>
        <mxCell id="MTR0tLnfn8A8-io0NUta-37" value="destination" style="rounded=0;whiteSpace=wrap;html=1;fillColor=#fff2cc;strokeColor=#d6b656;fontSize=15;fontStyle=1;align=center;" vertex="1" parent="1">
          <mxGeometry x="280" y="460" width="120" height="60" as="geometry" />
        </mxCell>
        <mxCell id="MTR0tLnfn8A8-io0NUta-38" value="startTime" style="rounded=0;whiteSpace=wrap;html=1;fillColor=#fff2cc;strokeColor=#d6b656;fontSize=15;fontStyle=1;align=center;" vertex="1" parent="1">
          <mxGeometry x="400" y="460" width="120" height="60" as="geometry" />
        </mxCell>
        <mxCell id="MTR0tLnfn8A8-io0NUta-39" value="endTime" style="rounded=0;whiteSpace=wrap;html=1;fillColor=#fff2cc;strokeColor=#d6b656;fontSize=15;fontStyle=1;align=center;" vertex="1" parent="1">
          <mxGeometry x="520" y="460" width="120" height="60" as="geometry" />
        </mxCell>
        <mxCell id="MTR0tLnfn8A8-io0NUta-40" value="cost" style="rounded=0;whiteSpace=wrap;html=1;fillColor=#fff2cc;strokeColor=#d6b656;fontSize=15;fontStyle=1;align=center;" vertex="1" parent="1">
          <mxGeometry x="640" y="460" width="120" height="60" as="geometry" />
        </mxCell>
        <mxCell id="MTR0tLnfn8A8-io0NUta-41" value="status" style="rounded=0;whiteSpace=wrap;html=1;fillColor=#fff2cc;strokeColor=#d6b656;fontSize=15;fontStyle=1;align=center;" vertex="1" parent="1">
          <mxGeometry x="760" y="460" width="120" height="60" as="geometry" />
        </mxCell>
        <mxCell id="MTR0tLnfn8A8-io0NUta-42" value="driverID" style="rounded=0;whiteSpace=wrap;html=1;fillColor=#fff2cc;strokeColor=#d6b656;fontSize=15;fontStyle=1;align=center;" vertex="1" parent="1">
          <mxGeometry x="880" y="460" width="120" height="60" as="geometry" />
        </mxCell>
        <mxCell id="MTR0tLnfn8A8-io0NUta-43" value="plateNumber" style="rounded=0;whiteSpace=wrap;html=1;fillColor=#fff2cc;strokeColor=#d6b656;fontSize=15;fontStyle=1;align=center;" vertex="1" parent="1">
          <mxGeometry x="1000" y="460" width="120" height="60" as="geometry" />
        </mxCell>
        <mxCell id="MTR0tLnfn8A8-io0NUta-44" value="Ride" style="text;html=1;align=center;verticalAlign=middle;whiteSpace=wrap;rounded=0;fontSize=15;fontStyle=3;fontColor=#000066;" vertex="1" parent="1">
          <mxGeometry x="20" y="430" width="60" height="30" as="geometry" />
        </mxCell>
        <mxCell id="MTR0tLnfn8A8-io0NUta-45" value="" style="endArrow=classic;html=1;rounded=0;exitX=0.5;exitY=1;exitDx=0;exitDy=0;entryX=0.75;entryY=1;entryDx=0;entryDy=0;fontSize=15;fontStyle=1;align=center;" edge="1" parent="1" source="MTR0tLnfn8A8-io0NUta-42" target="MTR0tLnfn8A8-io0NUta-11">
          <mxGeometry width="50" height="50" relative="1" as="geometry">
            <mxPoint x="650" y="530" as="sourcePoint" />
            <mxPoint x="700" y="480" as="targetPoint" />
            <Array as="points">
              <mxPoint x="940" y="560" />
              <mxPoint x="1240" y="560" />
              <mxPoint x="1240" y="200" />
              <mxPoint x="910" y="200" />
              <mxPoint x="130" y="200" />
            </Array>
          </mxGeometry>
        </mxCell>
        <mxCell id="MTR0tLnfn8A8-io0NUta-46" value="" style="endArrow=classic;html=1;rounded=0;entryX=0.5;entryY=1;entryDx=0;entryDy=0;exitX=0.75;exitY=0;exitDx=0;exitDy=0;fontSize=15;fontStyle=1;align=center;" edge="1" parent="1" source="MTR0tLnfn8A8-io0NUta-43">
          <mxGeometry width="50" height="50" relative="1" as="geometry">
            <mxPoint x="1091.12" y="448.5" as="sourcePoint" />
            <mxPoint x="140" y="400" as="targetPoint" />
            <Array as="points">
              <mxPoint x="1090" y="450" />
              <mxPoint x="1010" y="449" />
              <mxPoint x="620" y="450" />
              <mxPoint x="140" y="449" />
            </Array>
          </mxGeometry>
        </mxCell>
        <mxCell id="MTR0tLnfn8A8-io0NUta-50" value="rideID" style="rounded=0;whiteSpace=wrap;html=1;fontStyle=5;fillColor=#fff2cc;strokeColor=#d6b656;fontSize=15;align=center;" vertex="1" parent="1">
          <mxGeometry x="40" y="560" width="120" height="60" as="geometry" />
        </mxCell>
        <mxCell id="MTR0tLnfn8A8-io0NUta-51" value="customerID" style="rounded=0;whiteSpace=wrap;html=1;fontStyle=5;fillColor=#fff2cc;strokeColor=#d6b656;fontSize=15;align=center;" vertex="1" parent="1">
          <mxGeometry x="160" y="560" width="120" height="60" as="geometry" />
        </mxCell>
        <mxCell id="MTR0tLnfn8A8-io0NUta-52" value="RideCustomer" style="text;html=1;align=center;verticalAlign=middle;whiteSpace=wrap;rounded=0;fontSize=15;fontColor=#000066;fontStyle=3" vertex="1" parent="1">
          <mxGeometry x="30" y="535" width="60" height="30" as="geometry" />
        </mxCell>
        <mxCell id="MTR0tLnfn8A8-io0NUta-53" value="" style="endArrow=classic;html=1;rounded=0;exitX=0.5;exitY=1;exitDx=0;exitDy=0;entryX=0.5;entryY=1;entryDx=0;entryDy=0;fontSize=15;fontStyle=1;align=center;" edge="1" parent="1" source="MTR0tLnfn8A8-io0NUta-50" target="MTR0tLnfn8A8-io0NUta-35">
          <mxGeometry width="50" height="50" relative="1" as="geometry">
            <mxPoint x="130" y="470" as="sourcePoint" />
            <mxPoint x="180" y="420" as="targetPoint" />
            <Array as="points">
              <mxPoint x="100" y="630" />
              <mxPoint x="30" y="630" />
              <mxPoint x="30" y="540" />
              <mxPoint x="100" y="540" />
            </Array>
          </mxGeometry>
        </mxCell>
        <mxCell id="MTR0tLnfn8A8-io0NUta-54" value="" style="endArrow=classic;html=1;rounded=0;exitX=0.138;exitY=1.009;exitDx=0;exitDy=0;exitPerimeter=0;entryX=0.5;entryY=1;entryDx=0;entryDy=0;fontSize=15;fontStyle=1;align=center;" edge="1" parent="1" source="MTR0tLnfn8A8-io0NUta-51" target="MTR0tLnfn8A8-io0NUta-22">
          <mxGeometry width="50" height="50" relative="1" as="geometry">
            <mxPoint x="180" y="360" as="sourcePoint" />
            <mxPoint x="230" y="310" as="targetPoint" />
            <Array as="points">
              <mxPoint x="177" y="640" />
              <mxPoint x="20" y="640" />
              <mxPoint x="20" y="340" />
              <mxPoint x="100" y="340" />
            </Array>
          </mxGeometry>
        </mxCell>
        <mxCell id="MTR0tLnfn8A8-io0NUta-55" value="paymentID" style="rounded=0;whiteSpace=wrap;html=1;fontStyle=5;fillColor=#fff2cc;strokeColor=#d6b656;fontSize=15;align=center;" vertex="1" parent="1">
          <mxGeometry x="40" y="690" width="120" height="60" as="geometry" />
        </mxCell>
        <mxCell id="MTR0tLnfn8A8-io0NUta-56" value="amount" style="rounded=0;whiteSpace=wrap;html=1;fillColor=#fff2cc;strokeColor=#d6b656;fontSize=15;fontStyle=1;align=center;" vertex="1" parent="1">
          <mxGeometry x="160" y="690" width="120" height="60" as="geometry" />
        </mxCell>
        <mxCell id="MTR0tLnfn8A8-io0NUta-57" value="&#xa;Payment&#xa;&#xa;" style="text;html=1;align=center;verticalAlign=middle;whiteSpace=wrap;rounded=0;fontColor=#000066;fontSize=15;fontStyle=3" vertex="1" parent="1">
          <mxGeometry x="15" y="670" width="60" height="30" as="geometry" />
        </mxCell>
        <mxCell id="MTR0tLnfn8A8-io0NUta-58" value="paymentMethod" style="rounded=0;whiteSpace=wrap;html=1;fillColor=#fff2cc;strokeColor=#d6b656;fontSize=15;fontStyle=1;align=center;" vertex="1" parent="1">
          <mxGeometry x="280" y="690" width="120" height="60" as="geometry" />
        </mxCell>
        <mxCell id="MTR0tLnfn8A8-io0NUta-59" value="paymentDate" style="rounded=0;whiteSpace=wrap;html=1;fillColor=#fff2cc;strokeColor=#d6b656;fontSize=15;fontStyle=1;align=center;" vertex="1" parent="1">
          <mxGeometry x="400" y="690" width="120" height="60" as="geometry" />
        </mxCell>
        <mxCell id="MTR0tLnfn8A8-io0NUta-60" value="rideID" style="rounded=0;whiteSpace=wrap;html=1;fillColor=#fff2cc;strokeColor=#d6b656;fontSize=15;fontStyle=1;align=center;" vertex="1" parent="1">
          <mxGeometry x="520" y="690" width="120" height="60" as="geometry" />
        </mxCell>
        <mxCell id="MTR0tLnfn8A8-io0NUta-61" value="customerID" style="rounded=0;whiteSpace=wrap;html=1;fillColor=#fff2cc;strokeColor=#d6b656;fontSize=15;fontStyle=1;align=center;" vertex="1" parent="1">
          <mxGeometry x="640" y="690" width="120" height="60" as="geometry" />
        </mxCell>
        <mxCell id="MTR0tLnfn8A8-io0NUta-62" value="" style="endArrow=classic;html=1;rounded=0;entryX=0.75;entryY=1;entryDx=0;entryDy=0;fontSize=15;fontStyle=1;align=center;" edge="1" parent="1" target="MTR0tLnfn8A8-io0NUta-35">
          <mxGeometry width="50" height="50" relative="1" as="geometry">
            <mxPoint x="550" y="690" as="sourcePoint" />
            <mxPoint x="410" y="430" as="targetPoint" />
            <Array as="points">
              <mxPoint x="550" y="540" />
              <mxPoint x="130" y="540" />
            </Array>
          </mxGeometry>
        </mxCell>
        <mxCell id="MTR0tLnfn8A8-io0NUta-64" value="" style="endArrow=classic;html=1;rounded=0;entryX=0.36;entryY=1.057;entryDx=0;entryDy=0;entryPerimeter=0;fontSize=15;fontStyle=1;align=center;" edge="1" parent="1" target="MTR0tLnfn8A8-io0NUta-22">
          <mxGeometry width="50" height="50" relative="1" as="geometry">
            <mxPoint x="716" y="750" as="sourcePoint" />
            <mxPoint x="80" y="340" as="targetPoint" />
            <Array as="points">
              <mxPoint x="716" y="800" />
              <mxPoint x="680" y="800" />
              <mxPoint x="360" y="800" />
              <mxPoint x="10" y="800" />
              <mxPoint x="10" y="330" />
              <mxPoint x="80" y="330" />
            </Array>
          </mxGeometry>
        </mxCell>
        <mxCell id="MTR0tLnfn8A8-io0NUta-65" value="complaintID" style="rounded=0;whiteSpace=wrap;html=1;fontStyle=5;fillColor=#fff2cc;strokeColor=#d6b656;fontSize=15;align=center;" vertex="1" parent="1">
          <mxGeometry x="40" y="840" width="120" height="60" as="geometry" />
        </mxCell>
        <mxCell id="MTR0tLnfn8A8-io0NUta-66" value="complaintType" style="rounded=0;whiteSpace=wrap;html=1;fillColor=#fff2cc;strokeColor=#d6b656;fontSize=15;fontStyle=1;align=center;" vertex="1" parent="1">
          <mxGeometry x="160" y="840" width="120" height="60" as="geometry" />
        </mxCell>
        <mxCell id="MTR0tLnfn8A8-io0NUta-67" value="description" style="rounded=0;whiteSpace=wrap;html=1;fillColor=#fff2cc;strokeColor=#d6b656;fontSize=15;fontStyle=1;align=center;" vertex="1" parent="1">
          <mxGeometry x="280" y="840" width="120" height="60" as="geometry" />
        </mxCell>
        <mxCell id="MTR0tLnfn8A8-io0NUta-68" value="resolution" style="rounded=0;whiteSpace=wrap;html=1;fillColor=#fff2cc;strokeColor=#d6b656;fontSize=15;fontStyle=1;align=center;" vertex="1" parent="1">
          <mxGeometry x="400" y="840" width="120" height="60" as="geometry" />
        </mxCell>
        <mxCell id="MTR0tLnfn8A8-io0NUta-69" value="resolutionStatus" style="rounded=0;whiteSpace=wrap;html=1;fillColor=#fff2cc;strokeColor=#d6b656;fontSize=15;fontStyle=1;align=center;" vertex="1" parent="1">
          <mxGeometry x="520" y="840" width="120" height="60" as="geometry" />
        </mxCell>
        <mxCell id="MTR0tLnfn8A8-io0NUta-70" value="feedbackRating" style="rounded=0;whiteSpace=wrap;html=1;fillColor=#fff2cc;strokeColor=#d6b656;fontSize=15;fontStyle=1;align=center;" vertex="1" parent="1">
          <mxGeometry x="640" y="840" width="120" height="60" as="geometry" />
        </mxCell>
        <mxCell id="MTR0tLnfn8A8-io0NUta-71" value="customerID" style="rounded=0;whiteSpace=wrap;html=1;fillColor=#fff2cc;strokeColor=#d6b656;fontSize=15;fontStyle=1;align=center;" vertex="1" parent="1">
          <mxGeometry x="760" y="840" width="120" height="60" as="geometry" />
        </mxCell>
        <mxCell id="MTR0tLnfn8A8-io0NUta-72" value="driverID" style="rounded=0;whiteSpace=wrap;html=1;fillColor=#fff2cc;strokeColor=#d6b656;fontSize=15;fontStyle=1;align=center;" vertex="1" parent="1">
          <mxGeometry x="880" y="840" width="120" height="60" as="geometry" />
        </mxCell>
        <mxCell id="MTR0tLnfn8A8-io0NUta-73" value="" style="endArrow=classic;html=1;rounded=0;entryX=0.75;entryY=1;entryDx=0;entryDy=0;exitX=0.5;exitY=1;exitDx=0;exitDy=0;fontSize=15;fontStyle=1;align=center;" edge="1" parent="1" source="MTR0tLnfn8A8-io0NUta-71" target="MTR0tLnfn8A8-io0NUta-22">
          <mxGeometry width="50" height="50" relative="1" as="geometry">
            <mxPoint x="1180" y="890" as="sourcePoint" />
            <mxPoint x="520" y="320" as="targetPoint" />
            <Array as="points">
              <mxPoint x="820" y="950" />
              <mxPoint x="1200" y="950" />
              <mxPoint x="1200" y="320" />
              <mxPoint x="130" y="320" />
            </Array>
          </mxGeometry>
        </mxCell>
        <mxCell id="MTR0tLnfn8A8-io0NUta-74" value="" style="endArrow=classic;html=1;rounded=0;exitX=0.5;exitY=1;exitDx=0;exitDy=0;entryX=0.75;entryY=0;entryDx=0;entryDy=0;fontSize=15;fontStyle=1;align=center;" edge="1" parent="1" source="MTR0tLnfn8A8-io0NUta-72" target="MTR0tLnfn8A8-io0NUta-11">
          <mxGeometry width="50" height="50" relative="1" as="geometry">
            <mxPoint x="770" y="220" as="sourcePoint" />
            <mxPoint x="100" y="110" as="targetPoint" />
            <Array as="points">
              <mxPoint x="940" y="1000" />
              <mxPoint x="1280" y="1000" />
              <mxPoint x="1280" y="100" />
              <mxPoint x="880" y="100" />
              <mxPoint x="600" y="100" />
              <mxPoint x="130" y="100" />
            </Array>
          </mxGeometry>
        </mxCell>
        <mxCell id="MTR0tLnfn8A8-io0NUta-76" value="Complaint" style="text;whiteSpace=wrap;fontSize=15;fontStyle=3;fontColor=#000066;align=center;" vertex="1" parent="1">
          <mxGeometry x="10" y="810" width="90" height="40" as="geometry" />
        </mxCell>
      </root>
    </mxGraphModel>
  </diagram>
</mxfile>
